<svg width="254" height="49" viewBox="0 0 254 49" fill="none" xmlns="http://www.w3.org/2000/svg">
<path fill-rule="evenodd" clip-rule="evenodd" d="M65.9553 35.857C60.3673 35.857 56.261 31.5176 56.261 26.1672C56.261 20.8168 60.4097 16.3511 65.9977 16.3511C69.5537 16.3511 71.755 17.6571 73.4907 19.5529L70.8237 22.4177C69.5113 21.0275 68.1143 20.1006 65.9553 20.1006C62.8227 20.1006 60.5367 22.7969 60.5367 26.083C60.5367 29.4533 62.865 32.1496 66.167 32.1496C68.199 32.1496 69.6807 31.1806 71.0353 29.8325L73.6177 32.4023C71.755 34.3824 69.596 35.857 65.9553 35.857ZM77.47 35.8571H81.788V28.3581C81.788 23.3868 84.4127 20.9434 88.1804 20.9434H88.4343V16.3934C85.1323 16.2249 82.9733 18.1628 81.788 20.9434V16.3934H77.47V35.8571ZM110.998 16.3091L101.473 41.0811H97.1127L99.187 35.8571L91.0167 16.3091H95.631L101.177 30.7595L106.511 16.3091H110.998ZM118.237 26.0831C118.237 22.4179 120.777 20.0586 123.698 20.0586C126.619 20.0586 129.074 22.3757 129.074 26.0831C129.074 29.7905 126.661 32.1076 123.698 32.1076C120.819 32.1076 118.237 29.7484 118.237 26.0831ZM118.322 32.5289C119.634 34.2562 121.581 35.815 124.672 35.815C129.159 35.815 133.435 32.2761 133.435 26.041C133.435 19.8059 129.117 16.3091 124.672 16.3091C121.666 16.3091 119.719 17.8679 118.322 19.8059V16.3091H114.004V41.0811H118.322V32.5289ZM142.875 20.3956V29.5798C142.875 31.2228 143.722 31.8969 145.203 31.8969H146.897V35.7306H143.933C140.801 35.7306 138.557 34.3404 138.557 30.2538V20.3956H136.186V16.7304H138.557V11.5906H142.875V16.7304H146.897V20.3956H142.875ZM154.813 26.0408C154.813 22.7547 157.014 20.0585 160.486 20.0585C163.872 20.0585 166.285 22.7969 166.201 26.1251C166.201 29.4112 163.999 32.1075 160.528 32.1075C157.184 32.1075 154.813 29.369 154.813 26.0408ZM150.537 26.1672C150.537 31.5176 154.771 35.857 160.486 35.857C166.328 35.857 170.561 31.3912 170.561 26.083C170.561 20.6904 166.328 16.3511 160.57 16.3511C154.813 16.3511 150.537 20.7747 150.537 26.1672ZM211.751 20.0585C208.28 20.0585 206.079 22.7547 206.079 26.0408C206.079 29.369 208.449 32.1075 211.794 32.1075C215.265 32.1075 217.466 29.4112 217.466 26.1251C217.509 22.7969 215.138 20.0585 211.751 20.0585ZM211.751 35.857C206.036 35.857 201.803 31.5176 201.803 26.1672C201.803 20.7747 206.079 16.3511 211.836 16.3511C217.593 16.3511 221.827 20.6904 221.827 26.083C221.827 31.3912 217.551 35.857 211.751 35.857ZM254 23.4711C254 18.879 251.502 16.3091 247.396 16.3091C244.56 16.3091 242.57 17.6151 241.004 19.6373C239.988 17.6573 238.125 16.3513 235.416 16.3513C232.537 16.3513 230.928 17.91 229.701 19.5531V16.3513H225.383V35.8571H229.701V24.9035C229.701 21.9966 231.352 20.2272 233.722 20.2272C236.093 20.2272 237.532 21.8702 237.532 24.7771V35.8571H241.85V24.8614C241.85 21.8702 243.544 20.2272 245.872 20.2272C248.285 20.2272 249.682 21.7859 249.682 24.7771V35.815H254V23.4711ZM178.477 31.897V34.0877L178.35 34.2983L176.445 35.3516H176.191L174.329 34.2983L174.202 34.0877V31.897L174.329 31.6863L176.191 30.6331H176.445L178.35 31.6863L178.477 31.897ZM182.033 25.9144C181.949 31.2648 185.97 35.6884 191.558 35.8148C195.241 35.899 197.443 34.4666 199.348 32.4866L196.808 29.8745C195.453 31.2227 193.929 32.1495 191.897 32.1074C188.595 32.0653 186.309 29.3269 186.394 25.9565C186.436 22.6283 188.764 20.0163 191.897 20.0584C194.056 20.1006 195.453 21.1117 196.723 22.5019L199.432 19.6793C197.739 17.7413 195.538 16.3932 191.982 16.3089C186.351 16.1825 182.118 20.564 182.033 25.9144Z" fill="white"/>
<path fill-rule="evenodd" clip-rule="evenodd" d="M29.5752 39.5539H26.5392L22.9044 36.2562V34.5651L26.6674 31.0137V25.3907L31.585 22.2198L37.1867 26.4053L29.5752 39.5539ZM17.0034 30.6755L17.5593 25.3907L15.7205 20.6555H26.5819L24.7859 25.3907L25.2991 30.6755H17.0034ZM19.4835 36.2562L15.8488 39.5962H12.77L5.11572 26.4053L10.7602 22.2621L15.7205 25.3907V31.0137L19.4835 34.5651V36.2562ZM12.7272 10.8892H29.5324L31.5422 19.3449H10.7602L12.7272 10.8892Z" fill="white"/>
<path fill-rule="evenodd" clip-rule="evenodd" d="M21.1512 2.85759L2.467 13.6788V35.3212L21.1512 46.1424L39.8354 35.3212V13.6788L21.1512 2.85759ZM42.3024 12.25L21.1512 0L0 12.25V36.75L21.1512 49L42.3024 36.75V12.25Z" fill="white"/>
</svg>
